<svg xmlns="http://www.w3.org/2000/svg" viewBox="0 0 120 120" role="img" aria-label="Chameleon designer in a red beret">
  <circle cx="60" cy="60" r="60" fill="#f8dce3"/>
  <path d="M21 89c10-20 24-28 39-28s29 8 39 28v31H21Z" fill="#68a89a"/>
  <path d="M28 59c0-25 13-39 32-39s32 14 32 39c0 25-13 42-32 42S28 84 28 59Z" fill="#87c9a8"/>
  <circle cx="39" cy="51" r="13" fill="#fdf7e9"/><circle cx="81" cy="51" r="13" fill="#fdf7e9"/>
  <circle cx="42" cy="52" r="4" fill="#263844"/><circle cx="78" cy="52" r="4" fill="#263844"/>
  <path d="M48 77c6 6 18 6 24 0" fill="none" stroke="#3b745d" stroke-width="3" stroke-linecap="round"/>
  <path d="M28 30c5-17 23-23 42-18 10 2 18 7 22 12-6 3-18 7-34 7-13 0-23-1-30-1Z" fill="#b64f62"/>
  <circle cx="68" cy="13" r="5" fill="#b64f62"/>
  <path d="M92 88 105 72" stroke="#9b6c4e" stroke-width="5" stroke-linecap="round"/><path d="m105 72 4-9-9 4Z" fill="#d97f57"/>
</svg>
